<svg fill="none" xmlns="http://www.w3.org/2000/svg" class="icon icon-lock icon-lock" viewBox="0 0 14 17"><path fill-rule="evenodd" clip-rule="evenodd" d="M8.936 10.434v-.01a1.968 1.968 0 00-1.138-1.75 1.974 1.974 0 00-2.075.255 1.053 1.053 0 00-.264.273c-.653.825-.511 2.059.337 2.736.01.009.022.036.022.065v1.308c0 .59.48 1.069 1.071 1.069h.21a1.07 1.07 0 001.071-1.07v-1.307c0-.026.014-.054.037-.073a1.91 1.91 0 00.73-1.495zm-2.632-.728c.329-.264.737-.314 1.084-.153.345.16.569.503.577.883a.945.945 0 01-.363.736 1.068 1.068 0 00-.403.828v1.31a.099.099 0 01-.1.1h-.21a.099.099 0 01-.099-.1v-1.307c0-.312-.137-.61-.374-.812a1.006 1.006 0 01-.112-1.485z" fill="#000"/><path fill-rule="evenodd" clip-rule="evenodd" d="M11.66 5.88h.963c.76 0 1.377.615 1.377 1.374v8.372c0 .759-.616 1.374-1.377 1.374H1.377C.617 17 0 16.385 0 15.626V7.254c0-.76.616-1.375 1.377-1.375h.962V4.47A4.588 4.588 0 016.991.001a4.596 4.596 0 014.67 4.471v1.407zm-1.133 0V4.488a3.465 3.465 0 00-3.536-3.356c-1.9-.03-3.469 1.471-3.518 3.352v1.395h7.054zM1.133 7.253c0-.134.11-.243.243-.243h11.247c.134 0 .243.109.243.243v8.372a.243.243 0 01-.243.242H1.376a.243.243 0 01-.243-.242V7.254z" fill="#000"/></svg>