<svg fill="none" xmlns="http://www.w3.org/2000/svg" class="icon icon-sound-on icon-sound-on" viewBox="0 0 22 19"><path fill-rule="evenodd" clip-rule="evenodd" d="M3.971 4.79L9.486.667a.7.7 0 011.119.56v16.154a.7.7 0 01-1.12.56l-5.514-4.127H1.1a.7.7 0 01-.7-.7V5.49a.7.7 0 01.7-.7h2.87zm5.234-2.164L4.623 6.05a.7.7 0 01-.42.14H1.802v6.225h2.403a.7.7 0 01.42.14l4.58 3.43V2.624zm8.785-1.398a.7.7 0 00-.05.989 10.265 10.265 0 012.653 7.076c.049 2.636-.9 5.166-2.652 7.101a.7.7 0 101.037.94 11.658 11.658 0 003.015-8.041 11.646 11.646 0 00-3.014-8.016.7.7 0 00-.99-.05zm-2.265 2.089a.7.7 0 00-.017.99 6.973 6.973 0 011.957 4.985 6.985 6.985 0 01-1.957 5.006.7.7 0 101.007.973 8.367 8.367 0 002.35-5.98 8.355 8.355 0 00-2.35-5.957.7.7 0 00-.99-.017zm-2.211 3.115a.7.7 0 11.926-1.05 5.057 5.057 0 011.717 3.873 5.089 5.089 0 01-1.678 3.902.7.7 0 01-.938-1.04 3.708 3.708 0 001.217-2.859 3.675 3.675 0 00-1.244-2.826z" fill="#000"/></svg>