<svg fill="none" xmlns="http://www.w3.org/2000/svg" class="icon icon-spotify icon-spotify" viewBox="0 0 26 27"><path fill-rule="evenodd" clip-rule="evenodd" d="M0 13.113c0 7.157 5.802 12.959 12.959 12.959 7.156 0 12.958-5.802 12.958-12.959 0-7.156-5.802-12.958-12.959-12.958C5.803.155 0 5.956 0 13.113zm6.51 4.767c.06-.018 6.11-1.794 11.213 1.276a.85.85 0 10.878-1.459c-5.766-3.468-12.31-1.53-12.587-1.445a.85.85 0 00.497 1.628zm12.617-2.231c-6.41-3.687-12.869-1.54-12.933-1.518a1.006 1.006 0 11-.653-1.904c.299-.102 7.395-2.459 14.589 1.678a1.006 1.006 0 01-1.003 1.744zM5.59 10.142c.076-.024 7.665-2.348 15.055 1.533a1.238 1.238 0 101.151-2.192C13.504 5.127 5.195 7.67 4.846 7.78a1.238 1.238 0 10.745 2.362z" fill="#000"/></svg>