<svg width="35" height="33" fill="none" xmlns="http://www.w3.org/2000/svg" class="icon icon-account-newsletter icon-account-newsletter"><path d="M14.11 22.264l-6.152 4.472 6.152-4.472zm4.623-1.567L18 20.166a.854.854 0 00-1.004 0l-2.886 2.1 2.886-2.1a.853.853 0 011.004 0l.732.531zM15.48 2.05a.427.427 0 01-.246-.777l.113-.08a.427.427 0 11.494.698l-.112.08a.428.428 0 01-.249.079zm-2.435 1.717a.427.427 0 01-.246-.777l1.28-.904a.427.427 0 11.494.699l-1.282.903a.424.424 0 01-.246.079zm21.471 13.142a.424.424 0 01-.427-.426v-3.846a.13.13 0 010-.02v-.069c0-.008-.006-.023-.01-.034v-.011l-.018-.023-.006-.013a.542.542 0 00-.053-.085l-.025-.029-.008-.009-.018-.016-.02-.016a.187.187 0 00-.025-.02L17.69.931a.423.423 0 00-.284-.075h-.024l-.043.009h-.017l-.034.01-.028.014h-.01l-.022.012-.02.014a.427.427 0 01-.494-.695l.05-.034.015-.01a.304.304 0 01.043-.025.73.73 0 01.068-.036l.072-.032.022-.01a1.66 1.66 0 01.197-.058.665.665 0 01.153-.023c.302-.03.604.05.853.224l16.217 11.367.012.01.036.027a1.24 1.24 0 01.376.467c.016.03.029.062.04.093v.015a.683.683 0 01.035.11v.011l.012.058c0 .026.01.052.014.077a.874.874 0 01.008.181v3.83a.427.427 0 01-.42.447zm-6.609 0a.427.427 0 11.163-.032.423.423 0 01-.164.032h.002zm-27.426 0a.427.427 0 01-.427-.427v-3.83c0-.103.012-.206.037-.306v-.034c0-.022.013-.043.02-.064.007-.021.016-.048.026-.073a.995.995 0 01.038-.086l.026-.05a.726.726 0 01.054-.09c.015-.024.031-.046.047-.068.05-.066.106-.128.168-.183l.036-.032.032-.025.048-.036L3.67 9.432a.427.427 0 11.493.698l-3.074 2.167-.01.008-.01.008-.023.02a.379.379 0 00-.052.056l-.006.016-.01.016-.032.057v.017c0 .01 0 .02-.01.031v.015a.39.39 0 00-.012.102v3.83a.427.427 0 01-.442.436zm.611-4.615l-.01.007.01-.007zm9.912-7.086a.426.426 0 01-.246-.776l.91-.642a.427.427 0 11.494.698l-.91.642a.42.42 0 01-.248.078zm3.106 17.056l-6.152 4.472 6.152-4.472z" fill="currentColor"/><path d="M18.733 20.697L18 20.166a.854.854 0 00-1.004 0l-2.886 2.1 2.886-2.1a.853.853 0 011.004 0l.732.531zm11.939 7.038a.862.862 0 00-.33.116l.33-.116zm-13.165-9.167c-.296 0-.58-.116-.79-.325l-3.489-3.428a2.861 2.861 0 011.091-4.946 2.853 2.853 0 013.212 1.313 2.847 2.847 0 014.206-.668 2.86 2.86 0 01.032 4.408l-3.484 3.329a1.127 1.127 0 01-.778.317zm-2.44-7.942c-.057 0-.113 0-.17.007a2.028 2.028 0 00-1.816 1.723 2.012 2.012 0 00.705 1.815l.026.023 3.5 3.441a.275.275 0 00.382 0l3.493-3.336.022-.018a2.005 2.005 0 10-2.79-2.858c-.208.24-.355.526-.431.834a.428.428 0 01-.415.324h-.123a.425.425 0 01-.42-.349 2.006 2.006 0 00-1.963-1.606zm-8.65 17.66a.426.426 0 01-.301-.73.427.427 0 11.301.73z" fill="currentColor"/><path d="M3.914 14.292a.425.425 0 01-.427-.426v-8.23a1.285 1.285 0 011.281-1.282h20.813a.426.426 0 110 .854H4.768a.428.428 0 00-.427.429v8.229a.427.427 0 01-.427.426zm27.169.001a.427.427 0 01-.427-.426v-8.23a.428.428 0 00-.42-.43h-1.272a.426.426 0 01-.317-.736.428.428 0 01.317-.117h1.271a1.281 1.281 0 011.281 1.283v8.229a.427.427 0 01-.433.427zm-3.697-9.084h-.084a.426.426 0 01-.302-.73.426.426 0 01.302-.125h.084a.426.426 0 110 .855zM1.049 32.54zM14.11 22.264l-6.152 4.472 6.152-4.472zm19.608 10.308h.059a.468.468 0 01-.058 0H1.28a.508.508 0 01-.06 0h32.497zm.22-.03a.862.862 0 00.08-.025h-.01l-.07.025zm.085-.026a.877.877 0 00.076-.035l-.028.015-.019.008-.02.01h-.008l-.002.002zm-3.351-4.781a.862.862 0 00-.33.116l.33-.116zM34.1 32.48a.992.992 0 00.06-.034l-.041.025-.02.01zm.407-20.01l-.019-.04c0 .016.008.03.01.046 0-.018-.009-.037-.014-.055l.023.048zm.007.122a.449.449 0 010 .057v3.83-3.887zm-.678 19.972z" fill="currentColor"/><path d="M33.719 33H1.192a.8.8 0 01-.09-.01.969.969 0 01-.162-.034 1.367 1.367 0 01-.246-.096l-.077-.047A1.27 1.27 0 010 31.718V12.802c0-.18.037-.358.11-.523l.013-.032a1.298 1.298 0 011.46-.694c.189.045.365.133.515.258l12.267 10.107.02.016 3.118 2.569 3.117-2.57.02-.015 6.999-5.767.02-.016 3.135-2.58a.157.157 0 01.021-.02l2.098-1.73a1.27 1.27 0 011.808.18.98.98 0 01.052.068l.047.07.015.025.01.017.024.045a.149.149 0 01.017.037v.012a.299.299 0 01.012.026 1.334 1.334 0 01.084.28v.028c.01.067.016.135.016.204v6.783a.428.428 0 11-.854 0v-6.783a.523.523 0 00-.019-.13c0-.01-.007-.022-.014-.036v-.012a.178.178 0 01-.01-.022.286.286 0 01-.015-.026l-.01-.014-.025-.03-.01-.01-.013-.016a.429.429 0 00-.572-.023l-2.07 1.705-.022.02-3.175 2.616-.022.016L21.17 22.6l-.021.015-3.38 2.771a.428.428 0 01-.542 0l-3.37-2.775-.02-.015L1.55 12.472a.41.41 0 00-.359-.09.437.437 0 00-.29.22l-.009.02a.431.431 0 00-.039.183v18.917a.417.417 0 00.181.346l.018.014.01.006.03.016a.507.507 0 00.053.022l.025.006.027.007H33.72a.223.223 0 01.043 0h.046-.009a.33.33 0 01.047-.013l.027-.01h.013l.018-.008.03-.016.026-.018.008-.006.013-.008.03-.028.012-.01.025-.033.019-.026v-.009l.007-.012a.128.128 0 00.014-.026l.014-.032v-.016l.008-.033v-.028a.13.13 0 010-.02V21.202a.428.428 0 11.854 0v10.517c0 .041 0 .082-.006.124 0 .018 0 .043-.009.068-.008.025 0 .03-.008.046-.009.015 0 .008 0 .012a1.167 1.167 0 01-.084.274l-.027.057c-.018.035-.036.07-.057.103l-.037.055a.092.092 0 01-.01.015c-.006.009-.012.019-.02.027a1.207 1.207 0 01-.223.226l-.03.025-.012.008-.04.027a.731.731 0 01-.092.057.92.92 0 01-.105.052l-.03.012-.034.012h-.01a.871.871 0 01-.123.037l-.047.011h-.014l-.065.011a.61.61 0 01-.109.013l-.053.01zm.39-.067l.028-.006-.028.006zM14.11 22.264l-6.152 4.472 6.152-4.472z" fill="currentColor"/><path d="M18.733 20.697L18 20.166a.854.854 0 00-1.004 0l-2.886 2.1 2.886-2.1a.853.853 0 011.004 0l.732.531z" fill="currentColor"/><path d="M33.718 32.999H1.195l-.084-.01a1.202 1.202 0 01-.176-.034l-.024-.007H.897l-.05-.016a1.398 1.398 0 01-.156-.068l-.074-.05a1.318 1.318 0 01-.45-.477.427.427 0 01.123-.553l5.874-4.27.02-.015 1.525-1.112.02-.015 6.122-4.448.013-.009 2.886-2.1a1.275 1.275 0 011.505 0l.732.531a.428.428 0 11-.502.692l-.735-.527a.425.425 0 00-.502 0L14.37 22.6l-.011.008-6.152 4.473-.021.015-1.524 1.112-.021.015-5.397 3.92H33.75l-13.095-9.515a.112.112 0 01-.02-.013l-.717-.522a.426.426 0 01.502-.69l.698.507.02.014 13.575 9.866a.427.427 0 01.123.553c-.015.024-.036.061-.064.1a.493.493 0 01-.045.064.613.613 0 01-.035.044l-.035.04-.02.02-.032.033-.026.023c-.014.015-.03.028-.044.04a1.395 1.395 0 01-.067.052l-.04.028-.025.018-.014.008a.549.549 0 01-.063.037l-.03.016-.03.015-.026.013-.03.012-.034.012h-.01l-.022.009-.09.027-.053.014h-.014l-.077.012a.882.882 0 01-.098.011l-.095.008zm.391-.066a.324.324 0 00.032-.007l-.032.007z" fill="currentColor"/><path opacity=".2" d="M30.672 27.735a.862.862 0 00-.33.116l.33-.116z" fill="currentColor"/></svg>