<svg width="28" height="28" viewBox="0 0 28 28" fill="none" xmlns="http://www.w3.org/2000/svg" class="icon icon-close-side-menu icon-close-side-menu"><path fill-rule="evenodd" clip-rule="evenodd" d="M12.785 14L6.748 7.816a.765.765 0 010-1.062.72.72 0 011.036 0l6.166 6.314a.726.726 0 01.1 0l6.166-6.315a.72.72 0 011.036 0 .765.765 0 010 1.063L15.215 14l6.037 6.183a.765.765 0 010 1.063.72.72 0 01-1.036 0l-6.166-6.314a.726.726 0 01-.1 0l-6.166 6.315a.72.72 0 01-1.036 0 .765.765 0 010-1.064L12.785 14z" fill="#fff"/></svg>