<svg fill="none" xmlns="http://www.w3.org/2000/svg" class="icon icon-afterpay icon-afterpay" viewBox="0 0 51 11"><path d="M50.003 2.621l-1.523-.885-1.544-.899c-1.02-.595-2.296.152-2.296 1.35v.202c0 .111.057.214.154.268l.717.416a.297.297 0 00.444-.264v-.478c0-.237.251-.385.453-.269l1.408.823 1.404.818a.309.309 0 010 .532l-1.404.819-1.408.822a.303.303 0 01-.453-.268v-.237c0-1.198-1.276-1.95-2.296-1.35l-1.544.899-1.523.885c-1.024.6-1.024 2.106 0 2.705l1.523.885 1.544.9c1.02.594 2.296-.153 2.296-1.351v-.201a.304.304 0 00-.154-.269l-.717-.415c-.198-.117-.444.03-.444.263v.479c0 .237-.25.384-.453.268l-1.408-.823-1.403-.818a.309.309 0 010-.532l1.403-.818 1.408-.823a.303.303 0 01.453.268v.237c0 1.199 1.276 1.95 2.296 1.35l1.544-.898 1.523-.886c1.025-.603 1.025-2.106 0-2.705zm-9.987.295l-3.563 7.48h-1.479l1.334-2.794-2.099-4.686h1.518l1.346 3.139 1.47-3.139h1.473zM4.386 5.572c0-.894-.638-1.52-1.421-1.52s-1.421.64-1.421 1.52c0 .872.638 1.52 1.42 1.52.784 0 1.422-.625 1.422-1.52zm.013 2.656V7.54a2.08 2.08 0 01-1.65.773c-1.434 0-2.52-1.167-2.52-2.74 0-1.561 1.13-2.75 2.551-2.75a2.08 2.08 0 011.62.764v-.67h1.284v5.311H4.399zm7.532-1.18c-.449 0-.576-.17-.576-.617V4.074h.827V2.916h-.827V1.62h-1.316v1.296H8.341V2.39c0-.447.167-.617.63-.617h.29V.743h-.634c-1.087 0-1.601.362-1.601 1.467v.71h-.73v1.154h.73v4.154H8.34V4.074h1.698v2.603c0 1.082.41 1.551 1.474 1.551h.678v-1.18h-.26zm4.725-1.954c-.093-.689-.647-1.105-1.298-1.105-.647 0-1.184.403-1.316 1.105h2.614zm-2.627.827c.093.787.647 1.234 1.35 1.234.555 0 .982-.264 1.233-.688h1.35c-.312 1.126-1.306 1.846-2.613 1.846-1.58 0-2.688-1.127-2.688-2.732 0-1.605 1.17-2.763 2.719-2.763 1.557 0 2.688 1.167 2.688 2.763 0 .116-.009.233-.03.34h-4.009zm12.415-.349c0-.858-.638-1.52-1.421-1.52s-1.421.64-1.421 1.52c0 .872.638 1.52 1.421 1.52s1.421-.657 1.421-1.52zm-4.14 4.825v-7.48h1.285v.688a2.064 2.064 0 011.65-.787c1.412 0 2.52 1.18 2.52 2.74 0 1.561-1.13 2.75-2.551 2.75-.66 0-1.201-.263-1.58-.71v2.795h-1.324v.004zm10.088-4.825c0-.894-.638-1.52-1.42-1.52-.784 0-1.422.64-1.422 1.52 0 .872.638 1.52 1.421 1.52s1.421-.625 1.421-1.52zm.013 2.656V7.54a2.079 2.079 0 01-1.65.773c-1.433 0-2.52-1.167-2.52-2.74 0-1.561 1.13-2.75 2.552-2.75.668 0 1.231.299 1.618.764v-.67h1.285v5.311h-1.285zM19.986 3.435s.325-.617 1.13-.617c.344 0 .564.12.564.12v1.355s-.484-.304-.929-.241c-.444.063-.726.474-.726 1.028v3.144h-1.328V2.916h1.284v.519h.005z" fill="#000"/></svg>