<svg fill="none" xmlns="http://www.w3.org/2000/svg" class="icon icon-visa icon-visa" viewBox="0 0 29 10"><path fill-rule="evenodd" clip-rule="evenodd" d="M18.042.64l.042-.012h1.07l.257.047c.196.035.393.07.587.115.175.042.348.094.527.148l.247.073-.4 1.897c-.11-.033-.22-.068-.328-.102a9.23 9.23 0 00-.719-.205c-.479-.107-.97-.148-1.449-.013a1.46 1.46 0 00-.545.295c-.263.229-.267.559-.016.8.174.165.379.301.584.426.184.113.372.22.56.326.288.164.575.328.85.512.534.358.923.852 1.005 1.518.145 1.18-.285 2.108-1.26 2.765-.612.413-1.305.598-2.028.666a7.276 7.276 0 01-.682.032h-.005a7.151 7.151 0 01-2.275-.373c-.059-.02-.116-.044-.173-.067l-.018-.008a.222.222 0 01-.038-.023.833.833 0 00-.026-.017l.413-1.965.155.07c.108.05.214.097.321.141.753.308 1.531.45 2.337.296.21-.04.424-.134.602-.255.386-.263.423-.757.071-1.065a4.106 4.106 0 00-.604-.414 15.517 15.517 0 01-.167-.102c-.146-.09-.295-.176-.444-.261a8.443 8.443 0 01-.792-.495c-.499-.365-.86-.851-.928-1.498-.103-.968.25-1.754.982-2.365.637-.532 1.392-.768 2.197-.867.03-.003.06-.012.09-.02zm5.58.889c.215-.522.538-.74 1.093-.74h1.872l.06.284.123.589c.168.813.334 1.627.501 2.44l.001.004v.003l.965 4.695c.043.209.092.417.14.624v.001l.066.286v.064h-2.132a52.73 52.73 0 00-.069-.329 24.584 24.584 0 01-.159-.8c-.027-.157-.076-.217-.248-.215-.855.011-1.71.009-2.565.002-.13-.001-.18.042-.22.162a28.47 28.47 0 01-.378 1.066c-.018.048-.078.113-.118.114-.64.005-1.28.005-1.932.005h-.402l.134-.33c.097-.237.19-.468.286-.698l2.52-6.11.003-.006.002-.005.457-1.106zm1.355 1.764l-.027-.006-1.177 3.297h1.88l-.676-3.291zM8.396.926c-.698 1.805-1.4 3.608-2.101 5.412l-.154.394a.766.766 0 01-.038.076 2.525 2.525 0 00-.03.055l-.02-.098a9.03 9.03 0 01-.028-.146l-.27-1.452c-.213-1.154-.426-2.308-.643-3.46-.109-.579-.524-.918-1.098-.918H.378c-.124 0-.187 0-.22.031-.034.033-.035.1-.036.238l.026.007.062.016c.678.163 1.344.365 1.985.652.4.179.613.47.72.897.363 1.459.733 2.915 1.104 4.372l.66 2.602c.033.134.081.186.228.184a89.96 89.96 0 012.078-.001c.126 0 .19-.032.242-.16a3874.16 3874.16 0 012.654-6.442v-.001l.635-1.537.229-.559.119-.292-.06-.003a1.634 1.634 0 00-.095-.004h-.597c-.504 0-1.008 0-1.513-.003h-.004c-.11 0-.159.036-.2.14zm1.55 8.858L11.838.798h2.297l-.088.42a967.035 967.035 0 01-.514 2.444c-.415 1.967-.829 3.935-1.239 5.904-.035.172-.095.226-.27.223a57.068 57.068 0 00-1.372-.006l-.517.001h-.189z" fill="#000"/></svg>