<svg width="25" height="32" viewBox="0 0 25 32" fill="none" xmlns="http://www.w3.org/2000/svg" class="icon icon-account-greeting icon-account-greeting"><g clip-path="url(#clip0)" fill="#000"><path d="M16.976 30.008a.3.3 0 01-.422-.033c-1.37-1.588-2.467-2.3-3.63-3.056a18.265 18.265 0 01-4.47-3.834l-.034-.04a36.234 36.234 0 00-2.708-1.406C3.798 20.73 1.301 19.4.282 18.22c-.422-.49-.368-1.037.14-1.464.735-.617 1.877-.244 2.71.03l.221.07c.797.256 1.678.57 2.453.847.845.3 1.857.663 2.351.787A58.636 58.636 0 013.3 13.54l-.07-.08a19.371 19.371 0 01-1.735-2.226c-.233-.377-.944-1.523-.2-2.146.864-.726 2.563.905 5.265 3.628 1.243 1.25 3.324 3.344 3.77 3.198.15-.373-1.363-2.34-2.36-3.655C5.717 9.31 3.163 5.98 4.7 4.685c.399-.336 1.152-.393 1.953.525.863 1 1.751 2.182 2.692 3.433.978 1.3 1.992 2.646 3.008 3.825l.146.17c.273.318.534.62.7.77-.124-.5-.738-1.711-1.246-2.71-1.793-3.542-3.083-6.34-1.939-7.302.512-.43 1.367-.47 2.126.408.486.564 1.415 2.42 2.49 4.568 1.136 2.268 2.426 4.837 3.095 5.614 0 .012.996 1.096 1.694.51.37-.31.737-.937 1.125-1.6.487-.828.997-1.684 1.65-2.24 1.271-1.068 2.073-.673 2.523-.152.643.746.098 1.783-.428 2.786-.307.59-.626 1.18-.664 1.668a15.05 15.05 0 00.016 1.916c.092 1.834.2 3.738-1.51 5.047a.302.302 0 01-.419-.05.3.3 0 01.05-.415c1.456-1.129 1.37-2.787 1.281-4.552a15.13 15.13 0 01-.014-1.993c.048-.59.399-1.255.73-1.893.456-.867.886-1.687.502-2.132-.295-.342-.726-.59-1.678.218-.584.492-1.06 1.303-1.52 2.088-.415.708-.797 1.377-1.256 1.752-.458.376-1.542.577-2.536-.574-.733-.832-1.979-3.327-3.186-5.737-.969-1.935-1.973-3.934-2.41-4.446-.523-.608-1.02-.564-1.282-.342-.879.74.976 4.4 2.084 6.58 1.195 2.35 1.582 3.18 1.171 3.524a.517.517 0 01-.386.13c-.335-.026-.616-.352-1.228-1.064l-.147-.17c-1.03-1.196-2.048-2.547-3.033-3.856C7.92 7.746 7.037 6.572 6.19 5.588c-.483-.559-.905-.631-1.112-.458-1.108.932 1.474 4.304 3.361 6.767 2.005 2.624 2.939 3.907 2.271 4.47-.71.59-2.058-.7-4.582-3.238-1.006-1.013-2.047-2.062-2.91-2.772-1.235-1.017-1.514-.842-1.542-.82-.306.26.072.983.325 1.388a18.683 18.683 0 001.68 2.15l.07.081a57.616 57.616 0 004.997 5.062c.06.07.12.142.177.216a.292.292 0 01-.042.406.395.395 0 00-.053.059 1.424 1.424 0 01-.12.122c-.265.222-.751.076-3.106-.764-.771-.275-1.644-.59-2.433-.838l-.227-.074c-.698-.229-1.656-.541-2.134-.14-.26.22-.28.393-.072.631.996 1.161 3.71 2.558 5.234 3.272.797.376 1.744.842 2.79 1.454a.296.296 0 01.076.063l.067.078a17.67 17.67 0 004.342 3.723c1.195.787 2.331 1.514 3.758 3.167a.292.292 0 01-.028.415z"/><path d="M20.455 23.703c-1.012.85-2.391 1.503-2.744 1.104a.297.297 0 01.034-.42.587.587 0 01.287-.104.3.3 0 01.2.026 5.168 5.168 0 001.835-1.055l.412-.35a.303.303 0 01.5.244.296.296 0 01-.102.205l-.422.35zm2.803 1.057a.306.306 0 01-.372.013c-.136-.1-.26-.214-.371-.34a2.938 2.938 0 01-.642-2.122.295.295 0 01.105-.201.302.302 0 01.422.033.29.29 0 01.071.216 2.371 2.371 0 00.502 1.692c.08.092.169.175.267.248a.296.296 0 01.112.309.294.294 0 01-.05.104.365.365 0 01-.044.049zM17.42 3.483a.2.2 0 01-.133-.05.196.196 0 01-.066-.125l-.34-3.09a.196.196 0 01.042-.146.201.201 0 01.356.102l.339 3.09a.197.197 0 01-.176.22h-.022zm1.57.817a.202.202 0 01-.061-.012.195.195 0 01-.123-.248l1.011-2.951a.202.202 0 01.319-.086.199.199 0 01.068.135.194.194 0 01-.01.077l-1.012 2.95a.197.197 0 01-.192.135zm1.47 1.237a.201.201 0 01-.2-.208.195.195 0 01.063-.136l2.38-2.046a.201.201 0 01.274.023.196.196 0 01-.012.272l-2.373 2.046a.2.2 0 01-.131.05zM7.434 31.999h-.022a.202.202 0 01-.134-.072.196.196 0 01-.043-.145l.32-3.092a.197.197 0 01.073-.134.202.202 0 01.282.028c.033.04.05.093.044.145l-.323 3.093a.196.196 0 01-.064.126.2.2 0 01-.133.05zM4.72 30.991a.2.2 0 01-.186-.124.194.194 0 01.003-.151l1.251-2.855a.198.198 0 01.11-.105.202.202 0 01.259.11.195.195 0 01-.002.15l-1.252 2.857a.197.197 0 01-.183.118zm-2.712-2.073a.201.201 0 01-.15-.067.195.195 0 01.019-.277l2.373-2.056a.201.201 0 01.274.023.195.195 0 01-.011.272L2.14 28.86a.2.2 0 01-.132.06z"/></g><defs><clipPath id="clip0"><path fill="#fff" d="M0 0h25v32H0z"/></clipPath></defs></svg>