<svg fill="none" xmlns="http://www.w3.org/2000/svg" class="icon icon-apple-pay icon-apple-pay" viewBox="0 0 31 14"><path fill-rule="evenodd" clip-rule="evenodd" d="M6.872 1.85c.39-.452.652-1.08.58-1.707-.562.022-1.241.359-1.644.81-.361.4-.677 1.04-.592 1.654.627.046 1.266-.305 1.656-.757zM13.47.947c-.32.034-.639.078-.956.13v9.607h.702V6.529c.318.068.712.101 1.18.101.518 0 .995-.063 1.434-.187a3.213 3.213 0 001.135-.57c.32-.256.577-.578.754-.945.184-.375.276-.813.276-1.313 0-.413-.067-.779-.201-1.096a2.458 2.458 0 00-.56-.822 2.792 2.792 0 00-1.068-.599c-.433-.14-.948-.209-1.546-.209-.384-.002-.768.017-1.15.058zm-.254 4.977c.17.047.358.081.568.1.209.02.433.029.672.029.896 0 1.59-.202 2.083-.606.493-.404.74-.995.74-1.774a2.31 2.31 0 00-.195-.981 1.767 1.767 0 00-.552-.685 2.555 2.555 0 00-.851-.404 4.073 4.073 0 00-1.091-.137c-.319 0-.593.012-.822.036-.229.024-.413.05-.552.08v4.342zm10.378 3.952a23.31 23.31 0 01-.015-.836V6.313c0-.322-.032-.643-.097-.96a2.323 2.323 0 00-.366-.872 2.002 2.002 0 00-.739-.635c-.314-.163-.72-.245-1.217-.245a4.056 4.056 0 00-1.06.137 3.366 3.366 0 00-.986.454l.224.505c.249-.164.525-.29.829-.382.303-.091.61-.137.918-.137.408 0 .732.072.971.217.239.144.418.322.537.533.119.207.197.435.232.67.035.236.053.445.053.628v.188c-1.435-.02-2.508.192-3.22.635-.712.442-1.068 1.072-1.068 1.89a2 2 0 00.128.692c.082.228.212.437.38.613.17.178.386.322.65.433.264.11.57.165.918.165.26.003.52-.031.77-.1a2.612 2.612 0 001.112-.635 2.45 2.45 0 00.344-.404h.03l.104.981h.657a5.15 5.15 0 01-.089-.808zm1.358-6.116l1.822 4.5c.102.255.197.512.284.772.09.264.17.507.24.728h.03l.238-.714c.09-.264.19-.536.299-.815l1.703-4.472h.746L28.24 8.837c-.19.491-.387.98-.59 1.465a13.64 13.64 0 01-.56 1.182 8.386 8.386 0 01-.576.93 3.9 3.9 0 01-.65.708c-.278.24-.535.416-.77.526-.233.11-.39.18-.47.21l-.239-.563c.205-.09.405-.191.598-.303a3.25 3.25 0 00.642-.49c.18-.174.376-.402.59-.686.214-.283.406-.627.576-1.031.06-.154.089-.255.089-.303a.846.846 0 00-.09-.303l-2.584-6.42h.747zm-2.075 3.217a10 10 0 00-1.188.043 4.439 4.439 0 00-1.142.252c-.349.13-.637.32-.866.57-.229.25-.344.582-.344.996 0 .49.145.85.434 1.081.288.23.612.346.97.346.289 0 .548-.038.777-.115a1.999 1.999 0 001.023-.75c.115-.164.202-.332.262-.505.05-.193.075-.332.075-.419v-1.5zM9.772 7.985c-.07-.027-1.48-.575-1.495-2.162-.013-1.325 1.106-1.976 1.202-2.031l.004-.003c-.656-.92-1.677-1.046-2.041-1.06-.532-.052-1.048.143-1.47.302-.267.1-.496.188-.667.188-.191 0-.427-.09-.692-.19-.346-.132-.742-.282-1.15-.275a2.751 2.751 0 00-2.31 1.34C.168 5.73.9 8.153 1.86 9.48c.47.65 1.028 1.38 1.762 1.354.329-.013.562-.108.804-.207.278-.113.568-.23 1.025-.23.438 0 .714.114.98.224.254.105.498.206.863.2.76-.014 1.243-.663 1.709-1.314a5.732 5.732 0 00.77-1.516l.002-.005h-.003z" fill="#000"/></svg>