<svg fill="none" xmlns="http://www.w3.org/2000/svg" class="icon icon-american-express icon-american-express" viewBox="0 0 34 22"><path fill-rule="evenodd" clip-rule="evenodd" d="M33.307 20.087a1.1 1.1 0 01-1.101 1.1H1.386a1.1 1.1 0 01-1.1-1.1V1.649a1.1 1.1 0 011.1-1.1h30.82a1.1 1.1 0 011.101 1.1v18.438zm-22.776-10.03v.33h6.03V9.233h.11s.114-.01.114.137v1.017h3.009v-.31c.422.303.986.31.986.31h1.51l.33-.778h.49l.35.778h2.498v-.755l.472.76h2.008v-4.36h-1.955v.632l-.371-.632h-2.046v.632l-.28-.632h-3.192c-.48 0-.806.238-.806.238v-.238h-1.81l.002.17c-.247-.175-.624-.17-.624-.17h-7.18l-.49 1.053-.5-1.048H6.912v.618l-.261-.623H4.79L3.82 8.23v2.157h1.325l.32-.714h.512l.302.714h2.555v-.354l.172.354h1.367l.158-.33zm8.746-.311h-.759V6.65h.76v3.095zm-6.97-3.091h2.48v.665h-1.722v.58h1.673v.586h-1.673v.61h1.721v.65h-2.48V6.655zm3.688 1.363h.946c.31 0 .42-.138.42-.345 0-.152-.1-.355-.417-.355h-.948v.7zm2.126-.536c0 .373-.11.65-.525.856.36.041.497.276.497.773l.028.635h-.739l-.02-.566c-.007-.263-.11-.524-.373-.524h-.994v1.09h-.758V6.655h1.973c.372 0 .91.165.91.827zM5.21 8.39l.452-1.08.472 1.08H5.21zm5.346-1.734l-.931 2.073-.928-2.073h-1.19v2.977L6.182 6.655H5.178l-1.352 3.09h.8l.297-.69h1.514l.3.69h1.528V7.452L9.28 9.746h.69l1.038-2.257v2.257h.759V6.655h-1.21zM22.9 7.31l-.452 1.08h.928L22.9 7.31zm4.209 1.483v-2.14h.759v3.094h-1.035l-1.366-2.263v2.263H23.97l-.3-.69h-1.515l-.296.69h-1c-.842 0-1.215-.705-1.198-1.56.026-1.27.776-1.534 1.121-1.534h.991v.672h-.468c-.505 0-.898.053-.898.777v.225c.004.544.29.673.472.711.045.01.486.01.486.01l1.046-2.393h1.004l1.293 2.901V6.653h1.121l1.28 2.14zM9.03 11.331h3.953l.57.646.584-.646h3.04s.285.008.556.152v-.152h2.706c.344 0 .632.172.632.172v-.172h3.48v.159s.247-.159.58-.159h2.267v.159s.285-.159.587-.159h1.78v2.648c-.035-.406-.212-.747-1.003-.788a11.1 11.1 0 01-.27-.01 7.704 7.704 0 00-.261-.01c-.18-.018-.32-.056-.32-.246 0-.27.232-.27.472-.268h1.245v-.663h-1.594c-.497 0-.904.317-.904.896 0 .51.196.93 1.039.952a9 9 0 01.524.036c.224.023.28.113.28.254 0 .297-.314.297-.525.297h-1.242v.663H28.8c.459 0 .9-.266.965-.763v1.11s-.234.265-.718.265H26.7v-.13s-.224.13-.564.13h-6.232v-1.062c0-.104-.046-.123-.139-.123h-.085v1.185h-1.948v-1.178s-.216.116-.577.116h-.7v1.062h-2.401l-.546-.666-.584.666H9.03v-4.373zm12.459.656h2.48v.665h-1.72v.58h1.672v.587h-1.673v.61h1.722v.649h-2.481v-3.091zm4.416 1.204c.933.048 1.011.514 1.011 1.01 0 .58-.476.89-.973.89H24.35v-.662h1.242c.21 0 .524 0 .524-.297 0-.14-.055-.23-.28-.254a9.05 9.05 0 00-.524-.036c-.843-.022-1.038-.441-1.038-.952 0-.58.407-.896.903-.896h1.594v.663h-1.245c-.24-.001-.473-.002-.473.268 0 .19.142.228.321.245.03 0 .146.005.262.01.12.006.241.011.27.011zm-10.198.208h.945c.311 0 .422-.18.422-.387 0-.151-.1-.355-.419-.355h-.948v.742zm-1.856.099l1.09 1.29V12.29l-1.09 1.208zm-3.56.93h1.75l.835-.93-.74-.841-1.845-.005v.58h1.674v.587h-1.674v.61zm3.954-2.434h2.663c.373 0 .918.172.918.945 0 1.083-.718 1.097-1.112 1.097h-1.02v1.049h-1.456l-.89-1.028-.911 1.02H9.543v-3.09h2.991l.841.966.87-.96zm5.674 1.363h-.945v-.7h.948c.317 0 .417.204.417.355 0 .207-.11.345-.42.345zm.655.32c.414-.207.524-.483.524-.855 0-.662-.537-.828-.91-.828h-1.973v3.09h.759v-1.09h.993c.262 0 .366.263.372.525l.02.566h.74l-.029-.635c0-.497-.137-.732-.496-.773z" fill="#000"/></svg>