<svg fill="none" xmlns="http://www.w3.org/2000/svg" class="icon icon-zippay icon-zippay" viewBox="0 0 31 11"><path fill-rule="evenodd" clip-rule="evenodd" d="M22 2.373c-.299 0-.545-.086-.73-.254-.186-.168-.283-.4-.283-.686a.891.891 0 01.282-.673c.184-.176.43-.265.732-.265.248 0 .49.08.687.226.216.154.326.395.326.715 0 .285-.095.516-.283.686-.187.17-.433.252-.73.252v-.001zm0 6.72c-.768 0-.928-.384-.928-.706V3.688c0-.245.076-.444.227-.59.15-.147.39-.221.715-.221.273 0 .489.06.643.18.153.12.239.313.239.561v4.745c0 .258-.084.448-.249.564-.165.117-.377.166-.646.166zm-7.285-.28a.67.67 0 00.501.2h4.477c.236 0 .403-.075.498-.223a.97.97 0 00.132-.53.765.765 0 00-.155-.497.528.528 0 00-.427-.197h-2.767l2.92-3.178c.105-.109.194-.23.265-.362.074-.15.11-.317.104-.484 0-.214-.062-.384-.185-.503a.68.68 0 00-.492-.18h-4.32a.515.515 0 00-.437.205.79.79 0 00-.147.488c-.004.18.04.36.131.517.093.157.262.236.5.236h2.444L14.952 7.39a2.06 2.06 0 00-.29.4c-.09.162-.138.343-.136.527a.689.689 0 00.189.496zM1.458 6.989a2.298 2.298 0 011.5-.551H8.88l-4.403 3.857a2.315 2.315 0 01-3.208-.165 2.171 2.171 0 01.17-3.124l.019-.017zM26.54 4.296c.175-.09.37-.136.568-.13.194-.003.385.043.555.133.164.09.303.216.407.368.116.173.202.364.253.564.06.234.09.474.09.715 0 .52-.116.96-.335 1.29-.22.33-.534.491-.968.491-.433 0-.748-.15-.98-.47-.232-.32-.348-.761-.348-1.311a2.8 2.8 0 01.087-.717c.051-.201.139-.393.259-.565a1.23 1.23 0 01.412-.368zm-2.512 5.88c0 .328.152.718.87.718.318 0 .542-.055.688-.175.146-.12.22-.313.22-.577V8.63c.075.078.158.147.25.207.167.11.348.197.54.26.266.083.545.121.824.113.417.007.83-.077 1.21-.247.348-.16.655-.394.897-.686.252-.31.44-.663.554-1.041.13-.426.194-.869.19-1.313a4.847 4.847 0 00-.165-1.293 2.982 2.982 0 00-.505-1.035 2.384 2.384 0 00-.853-.687 2.67 2.67 0 00-1.175-.248 2.252 2.252 0 00-1.731.774c0-.268-.1-.455-.29-.55a1.292 1.292 0 00-.581-.131c-.324 0-.565.074-.715.22a.745.745 0 00-.228.557v6.647z" fill="#000"/><path fill-rule="evenodd" clip-rule="evenodd" d="M11.27 4.344L8.88 6.438H2.957a2.3 2.3 0 00-1.5.551L3.83 4.911a2.39 2.39 0 01-.1.002c-1.255 0-2.272-.99-2.272-2.212C1.458 1.479 2.475.488 3.73.488c1.254 0 2.272.99 2.272 2.213 0 .111-.009.221-.025.329l2.255-1.978a2.318 2.318 0 012.222-.459 2.237 2.237 0 011.52 1.645c.168.773-.1 1.575-.704 2.103v.003zm-6.797 5.953L8.875 6.44l.871-.002c1.24.019 2.236.98 2.236 2.212 0 1.231-.925 2.191-2.236 2.211h-6.78a2.298 2.298 0 001.506-.564zm-1.52.564h.013-.013z" fill="#303439" fill-opacity=".8"/></svg>