<svg fill="none" xmlns="http://www.w3.org/2000/svg" viewBox="0 0 38 15" class="icon icon-google-pay icon-google-pay"><path d="M12.136 6.83a4.882 4.882 0 00-.122-1.167h-5.43v2.119h3.188a2.783 2.783 0 01-1.181 1.852l-.011.07 1.716 1.314.119.01c1.09-.994 1.72-2.459 1.72-4.198z" fill="#515256"/><path d="M6.584 12.412c1.561 0 2.873-.507 3.83-1.383L8.591 9.632a3.45 3.45 0 01-2.004.571A3.482 3.482 0 013.296 7.83l-.069.006L1.442 9.2l-.023.063a5.773 5.773 0 005.165 3.15z" fill="#26272C"/><path opacity=".76" d="M3.294 7.832a3.456 3.456 0 01-.005-2.26l-.002-.075L1.479 4.11l-.06.027a5.633 5.633 0 000 5.127l1.875-1.433z" fill="#727276"/><path d="M6.584 3.202c.83-.014 1.63.29 2.235.85l1.632-1.572A5.6 5.6 0 006.582.995a5.785 5.785 0 00-5.167 3.148l1.87 1.433a3.496 3.496 0 013.3-2.374z" fill="#515256"/><path d="M17.925 7.338v4.15H16.58V1.237h3.563a3.26 3.26 0 012.308.886 2.924 2.924 0 010 4.34 3.25 3.25 0 01-2.308.873l-2.22.002zm0-4.84v3.579h2.25a1.78 1.78 0 001.329-.53 1.721 1.721 0 00.048-2.458l-.014-.013c-.012-.012-.023-.025-.034-.034a1.768 1.768 0 00-1.328-.544h-2.251zm8.583 1.746c.995 0 1.778.26 2.352.781.574.52.862 1.232.862 2.14v4.323h-1.285v-.975h-.057c-.555.8-1.296 1.203-2.221 1.203a2.909 2.909 0 01-1.977-.689 2.179 2.179 0 01-.795-1.717 2.068 2.068 0 01.838-1.73c.56-.43 1.308-.644 2.242-.644a4.047 4.047 0 011.97.43v-.303a1.483 1.483 0 00-.555-1.165 1.92 1.92 0 00-1.296-.478 2.072 2.072 0 00-1.78.93l-1.182-.731c.645-.917 1.607-1.375 2.884-1.375zM24.77 9.34a1.05 1.05 0 00.444.86c.297.23.667.35 1.044.343.567 0 1.108-.221 1.51-.616.423-.363.668-.891.668-1.446-.42-.327-1.003-.492-1.753-.492a2.299 2.299 0 00-1.364.386 1.166 1.166 0 00-.549.965zm12.327-4.864L32.614 14.58h-1.388l1.664-3.536-2.95-6.57h1.46l2.132 5.038h.03l2.073-5.039 1.462.003z" fill="#0C0C0C"/></svg>