<svg fill="none" xmlns="http://www.w3.org/2000/svg" class="icon icon-snapchat-filled icon-snapchat-filled" viewBox="0 0 24 23"><path d="M20.959 18.655c2.438-.377 2.831-.878 2.893-1.024a.143.143 0 00.015-.057c-3.64-.6-5.26-4.246-5.361-4.485-.252-.51-.294-.96-.133-1.343.287-.679 1.145-.95 1.712-1.13.13-.042.24-.077.328-.111.248-.097.49-.212.701-.379.147-.116.322-.356.163-.54-.166-.19-.594-.303-.835-.25-.226.05-.438.165-.657.239a2.465 2.465 0 01-.745.142h-.019c-.58-.023-.841-.296-.87-.325l-.066-.079.005-.102c.012-.24.027-.492.044-.75.103-1.636.233-3.672-.268-4.796a6.566 6.566 0 00-1.052-1.653A5.765 5.765 0 0015.55.948a6.094 6.094 0 00-1.297-.605A6.84 6.84 0 0013.097.07 8.431 8.431 0 0012.004 0a8.284 8.284 0 00-1.103.057 6.7 6.7 0 00-1.12.237 6.09 6.09 0 00-1.283.55 5.73 5.73 0 00-1.275.99 6.22 6.22 0 00-1.087 1.553c-.045.093-.092.186-.134.281-.5 1.124-.372 3.157-.269 4.794.018.257.032.51.046.75l.003.101-.066.079c-.03.033-.312.328-.945.328-.353 0-.701-.09-1.03-.214-.168-.063-.327-.152-.507-.162a.81.81 0 00-.473.134c-.67.412.36.895.696 1.027.084.034.196.069.326.11.568.18 1.424.452 1.712 1.13.162.384.118.837-.133 1.344-.102.24-1.72 3.885-5.362 4.485a.29.29 0 00.015.06c.062.144.455.648 2.896 1.024.382.059.475.488.585.987.039.178.077.362.133.547.019.067.02.071.109.071.107 0 .273-.034.462-.07a7.084 7.084 0 011.427-.16c.337 0 .686.029 1.036.088.746.125 1.354.555 1.997 1.009.166.117.333.235.502.348.41.273.841.52 1.312.68.53.18 1.091.235 1.65.214.117-.005.235-.007.353-.018a4.19 4.19 0 001.508-.447c.43-.22.828-.498 1.222-.777.644-.454 1.252-.884 1.997-1.01.35-.058.7-.086 1.037-.086.607 0 1.08.083 1.427.15.191.037.354.06.463.06h.029c.06 0 .063-.004.08-.06.055-.186.095-.366.134-.544.107-.497.2-.925.585-.985z" fill="#000"/></svg>