<svg fill="none" xmlns="http://www.w3.org/2000/svg" class="icon icon-google-plus icon-google-plus" viewBox="0 0 26 17"><path fill-rule="evenodd" clip-rule="evenodd" d="M15.912 7.014H8.08v2.798h4.69c-.677 2.003-2.547 3.443-4.749 3.443C5.248 13.255 3 10.97 3 8.15c0-2.818 2.249-5.104 5.023-5.104 1.216 0 2.327.44 3.195 1.17h.132l2.066-2.1A7.93 7.93 0 008.022 0C3.592 0 0 3.65 0 8.15c0 4.503 3.592 8.15 8.022 8.15a7.926 7.926 0 004.887-1.685 8.194 8.194 0 002.862-4.346c.157-.599.15-1.2.143-1.813l-.002-.372v-1.07zm4.958 4.623h2.35V9.302h2.337v-2.35h-2.336V4.617h-2.35v2.337h-2.335v2.349h2.334v2.335z" fill="#000"/></svg>