<svg fill="none" xmlns="http://www.w3.org/2000/svg" class="icon icon-phone icon-phone" viewBox="0 0 16 16"><path fill-rule="evenodd" clip-rule="evenodd" d="M2.035.539l.012-.011C2.337.255 2.757 0 3.278 0c.635 0 1.097.312 1.417.588.159.137.312.291.45.432l.087.09c.113.116.224.23.347.35.072.07.152.142.243.227l.016.014c.085.078.18.165.273.254.191.184.423.421.606.696.184.274.373.666.359 1.145-.016.504-.25.93-.586 1.268a15.495 15.495 0 01-.31.312c-.265.27-.53.538-.817.801.204.455.49.916.937 1.488l.018.023c.934 1.153 1.9 2.03 2.947 2.695l.001.001.129.082c.136.088.252.163.377.23.053.027.095.047.129.06.07-.046.166-.127.288-.255a8.7 8.7 0 00.384-.437l.025-.03c.117-.14.26-.31.393-.445.167-.167.608-.564 1.25-.564.62 0 1.046.363 1.24.57l1.969 1.975.002.002c.26.259.467.587.53.988.062.4-.042.747-.17 1.004a2.784 2.784 0 01-.419.593c-.08.091-.187.201-.268.285l-.086.09c-.97 1.03-2.137 1.469-3.35 1.468-1.174 0-2.337-.41-3.383-.966-2.086-1.111-3.988-2.965-5.073-4.264l-.003-.004C1.949 9.218 1.066 7.753.477 6.157c-.365-.98-.531-1.832-.461-2.684v-.004A2.655 2.655 0 01.8 1.78L2.035.538zm-.62 5.27C1.956 7.28 2.774 8.65 4 10.13c2.077 2.487 7.223 7 10.31 3.718l.121-.126c.413-.428.864-.895.314-1.441l-1.986-1.992c-.111-.123-.294-.264-.517-.264-.226 0-.42.148-.542.27a6.696 6.696 0 00-.345.393c-.4.48-.91 1.088-1.43 1.088-.347 0-.773-.275-1.092-.48l-.103-.067c-1.153-.732-2.198-1.686-3.19-2.911l-.003-.004c-.546-.695-.905-1.279-1.16-1.898-.106-.32-.044-.63.194-.869.313-.28.6-.569.902-.879a12.44 12.44 0 00.308-.31c.703-.704.01-1.341-.622-1.921-.095-.088-.189-.174-.277-.26-.134-.13-.256-.255-.37-.373C4.057 1.337 3.729 1 3.278 1c-.183 0-.37.09-.546.256L1.508 2.484c-.298.3-.46.649-.496 1.07-.054.66.068 1.358.402 2.255z" fill="#000"/></svg>