<svg fill="none" xmlns="http://www.w3.org/2000/svg" class="icon icon-paypal icon-paypal" viewBox="0 0 46 12"><path d="M8.777 3.36a3.91 3.91 0 00-.433-.099 5.416 5.416 0 00-.873-.064H4.823a.424.424 0 00-.417.363l-.563 3.626-.016.102a.483.483 0 01.476-.41h.99c1.947 0 3.47-.804 3.916-3.128a4.38 4.38 0 00.034-.205 2.352 2.352 0 00-.366-.156l-.1-.03z" fill="#000"/><path fill-rule="evenodd" clip-rule="evenodd" d="M4.823 3.198a.425.425 0 00-.417.363l-.563 3.626-.524 3.375H1.23a.289.289 0 01-.22-.103.299.299 0 01-.066-.238l1.412-9.068a.486.486 0 01.475-.41H6.21c1.164 0 2.073.249 2.577.833.458.53.59 1.114.458 1.973a2.386 2.386 0 00-.366-.156l-.101-.032a3.142 3.142 0 00-.433-.099 5.417 5.417 0 00-.873-.064H4.823zm12.763.014H15.12a.344.344 0 00-.338.299l-.996 6.418a.21.21 0 00.045.169.2.2 0 00.157.072h1.176c.172 0 .317-.13.339-.304l.266-1.726a.344.344 0 01.338-.294h.78c1.622 0 2.559-.798 2.803-2.38.11-.691 0-1.23-.314-1.615-.349-.417-.97-.639-1.791-.639zm.281 2.349c-.135.898-.807.898-1.462.898h-.371l.26-1.677a.203.203 0 01.202-.177h.17c.445 0 .864 0 1.081.258.13.15.17.378.12.698zm7.082-.033h-1.183a.203.203 0 00-.202.176l-.052.336-.083-.122c-.255-.377-.825-.503-1.393-.503-1.303 0-2.42 1.004-2.633 2.41-.112.703.048 1.373.44 1.846.358.426.87.605 1.484.605a2.238 2.238 0 001.632-.685l-.053.333c-.01.06.006.122.045.17a.2.2 0 00.157.072h1.062c.17 0 .315-.128.339-.3l.642-4.1a.207.207 0 00-.047-.167.2.2 0 00-.155-.071zM23.3 7.86a1.318 1.318 0 01-1.33 1.145c-.344 0-.617-.111-.793-.323a1.032 1.032 0 01-.185-.841 1.33 1.33 0 011.322-1.153.986.986 0 01.787.326c.185.24.257.548.199.846zm7.924-2.332H30.04a.341.341 0 00-.283.153l-1.634 2.443-.693-2.348a.344.344 0 00-.329-.248h-1.164a.2.2 0 00-.17.085.208.208 0 00-.025.19L27.047 9.7l-1.227 1.76a.208.208 0 00-.019.219c.036.07.109.113.187.11h1.18a.34.34 0 00.281-.15l3.945-5.784a.208.208 0 00.016-.217.201.201 0 00-.185-.11z" fill="#27272C"/><path fill-rule="evenodd" clip-rule="evenodd" d="M43.9 3.389l-1.01 6.535c-.01.06.007.122.046.168a.2.2 0 00.156.073h1.02a.344.344 0 00.334-.299l.997-6.418a.208.208 0 00-.045-.169.2.2 0 00-.157-.072h-1.139a.203.203 0 00-.203.182zm-8.751-.173h-2.463a.344.344 0 00-.338.294l-.996 6.419a.21.21 0 00.045.169.2.2 0 00.157.072h1.262a.24.24 0 00.236-.205l.282-1.82a.344.344 0 01.338-.294h.78c1.623 0 2.559-.798 2.803-2.38.11-.691 0-1.23-.315-1.615-.347-.422-.967-.644-1.791-.644v.004zm.284 2.345c-.134.898-.807.898-1.462.898H33.6l.26-1.677a.203.203 0 01.202-.177h.166c.445 0 .864 0 1.081.258.13.15.174.378.124.698zm7.076-.034h-1.178a.203.203 0 00-.202.176l-.052.335-.083-.122c-.255-.376-.824-.502-1.392-.502-1.304 0-2.421 1.004-2.633 2.41-.112.702.047 1.373.439 1.846.36.43.873.61 1.485.61a2.238 2.238 0 001.632-.686l-.052.333a.21.21 0 00.044.17.2.2 0 00.158.072h1.062c.17 0 .315-.13.337-.303l.638-4.1a.207.207 0 00-.047-.167.2.2 0 00-.156-.071v-.001zM40.865 7.86a1.318 1.318 0 01-1.33 1.145c-.342 0-.616-.112-.792-.323a1.038 1.038 0 01-.184-.841 1.327 1.327 0 011.317-1.153.987.987 0 01.787.326c.186.238.26.548.202.846zM9.208 3.753c.013-.068.025-.136.035-.205.184.095.35.223.488.378.43.498.514 1.207.352 2.057C9.69 8.017 8.356 8.72 6.653 8.72H6.39a.424.424 0 00-.423.355l-.021.117-.331 2.134-.017.091a.425.425 0 01-.418.362H3.428a.251.251 0 01-.193-.09.26.26 0 01-.057-.208l.143-.923.505-3.27a.483.483 0 01.476-.41h.991c1.947 0 3.47-.804 3.915-3.124z" fill="#46484F"/></svg>