<svg width="39" height="36" viewBox="0 0 39 36" fill="none" xmlns="http://www.w3.org/2000/svg" class="icon icon-account-wishlist icon-account-wishlist"><path fill-rule="evenodd" clip-rule="evenodd" d="M17.67 20.358c.567.448 1.023.926 1.253 1.467.235.548.218 1.448 1.044 1.4.793-.046.929-1.042 1.267-1.588.632-1.018 1.472-1.777 2.464-2.522.844-.634 1.683-1.285 2.3-2.178.629-.908 1.013-2.038 1.013-3.61 0-1.823-1.087-3.146-2.523-3.704-1.428-.555-3.2-.355-4.606.821-.45.378-.237.404-.706.06-3.17-2.321-7.428.394-6.961 3.876.212 1.582.773 2.541 1.498 3.231.666.634 1.452 1.116 2.238 1.598.589.361 1.179.723 1.719 1.15zm-.946-1.863c-1.133-.759-2.265-1.517-2.968-2.676-.91-1.496-.54-3.493.945-4.468 1.348-.886 3.699-.99 4.612.575.093.16.348.141.417-.031 1.056-1.293 2.912-1.93 4.435-1.132 1.611.844 2.143 2.645 1.679 4.308-.47 1.407-1.596 2.277-2.718 3.144-.561.434-1.037.864-1.464 1.438-.38.512-.764 1.028-1.338 1.239-.379.138-.663.14-1.13-.405-.683-.795-1.576-1.394-2.47-1.992z" fill="#000"/><path fill-rule="evenodd" clip-rule="evenodd" d="M29.012 2.288c4.129 1.001 6.824 4.767 7.175 8.797.422 4.847-2.627 8.716-6.103 11.473-.559.444-1.119.864-1.672 1.28-1.326.995-2.614 1.963-3.762 3.157-.925.962-1.76 2.088-2.48 3.251-.585.94-.96 2.318-1.723 3.114a.893.893 0 01-.592.293c-.409.024-.686-.237-.853-.487-.47-.703-.413-1.577-.735-2.332-.564-1.326-1.626-2.34-2.78-3.324-1.546-1.319-3.222-2.474-4.89-3.632-1.746-1.21-3.713-2.617-5.32-4.3-1.608-1.686-2.881-3.674-3.2-6.049C1.51 9.285 4.128 5.116 8.081 3.522c1.751-.707 4.036-1 6.118-.638 1.875.326 3.638 1.195 4.665 2.827 2.366-3.049 6.38-4.336 10.148-3.423zm5.67 10.16c0-3.651-1.447-6.544-4.548-8.169-3.709-1.944-8.229-.392-10.8 2.756-.167.42-.788.466-1.016.076-1.078-1.847-3.02-2.755-5.155-2.917-2.14-.163-4.418.43-6.074 1.52-2.375 1.559-3.57 4.02-3.552 6.56.165 1.532.434 2.976 1.25 4.318 1.015 1.674 2.66 3.01 4.243 4.284 1.75 1.41 3.293 2.595 5.173 3.792a17.264 17.264 0 013.825 3.29c.888 1.037 1.827 2.876 3.338.744 1.511-2.132 5.745-5.375 8.866-8.326 2.614-2.472 4.45-5.549 4.45-7.928z" fill="#000"/></svg>