<svg width="30" height="30" viewBox="0 0 30 30" fill="none" xmlns="http://www.w3.org/2000/svg" class="icon icon-download icon-download"><path fill-rule="evenodd" clip-rule="evenodd" d="M14.827 5.396a.7.7 0 111.4 0v14.098l4.117-3.98a.7.7 0 11.973 1.007l-5.292 5.115a.698.698 0 01-.985.01l-5.298-5.125a.7.7 0 11.974-1.006l4.11 3.978V5.396zm9.91 15.048a.7.7 0 00-.7.7v3.344H6.963v-3.344a.7.7 0 10-1.4 0v4.044a.7.7 0 00.7.7h18.472a.7.7 0 00.7-.7v-4.044a.7.7 0 00-.7-.7z" fill="#414B56"/></svg><svg width="30" height="30" viewBox="0 0 30 30" fill="none" xmlns="http://www.w3.org/2000/svg" class="icon"><path fill-rule="evenodd" clip-rule="evenodd" d="M14.827 5.396a.7.7 0 111.4 0v14.098l4.117-3.98a.7.7 0 11.973 1.007l-5.292 5.115a.698.698 0 01-.985.01l-5.298-5.125a.7.7 0 11.974-1.006l4.11 3.978V5.396zm9.91 15.048a.7.7 0 00-.7.7v3.344H6.963v-3.344a.7.7 0 10-1.4 0v4.044a.7.7 0 00.7.7h18.472a.7.7 0 00.7-.7v-4.044a.7.7 0 00-.7-.7z" fill="#414B56"/></svg>