<svg fill="none" xmlns="http://www.w3.org/2000/svg" viewBox="0 0 29 29" class="icon icon-whatsapp icon-whatsapp"><path d="M14.5.453C6.752.453.453 6.752.453 14.5c0 2.379.589 4.713 1.744 6.774l-1.2 4.396c-.204.702 0 1.427.52 1.948a2.018 2.018 0 001.95.544l4.576-1.201a13.975 13.975 0 006.48 1.586c7.748 0 14.046-6.299 14.046-14.047 0-3.76-1.45-7.273-4.1-9.924C21.795 1.926 18.26.453 14.5.453zm0 1.36c3.398 0 6.593 1.314 8.972 3.715 2.401 2.402 3.738 5.596 3.715 8.972 0 7-5.686 12.688-12.687 12.688-2.107 0-4.214-.544-6.072-1.541a.736.736 0 00-.317-.09c-.068 0-.113 0-.181.022l-4.826 1.269a.662.662 0 01-.657-.182.662.662 0 01-.181-.656l1.268-4.668a.693.693 0 00-.067-.52A12.784 12.784 0 011.812 14.5c0-7 5.687-12.688 12.688-12.688zm0 2.039a10.649 10.649 0 00-9.22 15.973 2.79 2.79 0 01.27 2.083l-.656 2.38 2.537-.657c.227-.068.454-.091.68-.091.453 0 .906.113 1.291.34a11.03 11.03 0 005.098 1.268c5.868 0 10.648-4.78 10.648-10.648a10.59 10.59 0 00-3.126-7.545A10.57 10.57 0 0014.5 3.852zM9.765 8.315h.634c.25 0 .499.022.748.566.294.657.951 2.311 1.02 2.47.09.158.136.362.022.589-.113.226-.158.362-.34.566-.158.204-.362.43-.498.59-.159.158-.34.34-.136.68.204.339.86 1.426 1.857 2.31 1.27 1.133 2.357 1.495 2.697 1.654.34.159.521.136.725-.09.204-.227.838-.975 1.065-1.315.226-.34.453-.272.747-.158.318.113 1.949.928 2.289 1.087.34.159.566.25.634.385.09.182.09.838-.181 1.631-.272.77-1.631 1.541-2.266 1.586-.612.046-1.178.272-4.01-.838-3.399-1.336-5.55-4.826-5.71-5.052-.158-.227-1.359-1.813-1.359-3.466 0-1.654.86-2.447 1.178-2.787.317-.34.657-.408.884-.408z" fill="#000"/></svg>