<svg fill="none" xmlns="http://www.w3.org/2000/svg" class="icon icon-fast-forward icon-fast-forward" viewBox="0 0 22 14"><path fill-rule="evenodd" clip-rule="evenodd" d="M.635 1.384v11.353a.75.75 0 001.134.644l8.577-5.112v4.654a.75.75 0 001.135.644L21 7.887A.75.75 0 0021 6.6L11.48.926a.75.75 0 00-1.134.644v4.288L1.77.74a.75.75 0 00-1.134.644zm9.711 4.474v2.411l.942-.56a.75.75 0 000-1.29l-.942-.561zM2.135 2.705L9.44 7.064l-7.305 4.353V2.705zM19.15 7.244L11.846 2.89v8.712l7.305-4.358z" fill="#000"/></svg>