<svg fill="none" xmlns="http://www.w3.org/2000/svg" viewBox="0 0 12 12" class="icon icon-tooltip icon-tooltip"><path fill-rule="evenodd" clip-rule="evenodd" d="M.54 6a5.46 5.46 0 1010.92 0A5.46 5.46 0 00.54 6zm10.267 0a4.807 4.807 0 11-9.614 0 4.807 4.807 0 019.614 0z" fill="gray"/><path fill-rule="evenodd" clip-rule="evenodd" d="M6.358 6.613c-.046.096-.066.267-.062.513h-.814a17.859 17.859 0 01-.003-.213c0-.264.044-.48.13-.651.088-.17.263-.362.524-.574.262-.213.418-.352.47-.418a.559.559 0 00.117-.345.58.58 0 00-.209-.448c-.14-.124-.327-.187-.563-.187a.853.853 0 00-.57.195c-.154.13-.26.328-.317.593l-.823-.102a1.37 1.37 0 01.487-.97c.3-.265.696-.398 1.185-.398.514 0 .924.134 1.228.403.304.27.456.583.456.94 0 .198-.056.385-.167.561-.112.177-.35.417-.716.721-.19.158-.307.284-.353.38zm.02.823v.896h-.896v-.896h.897z" fill="gray"/></svg>