<svg fill="none" xmlns="http://www.w3.org/2000/svg" class="icon icon-laybuy icon-laybuy" viewBox="0 0 57 13"><path fill-rule="evenodd" clip-rule="evenodd" d="M51.3 5.496l1.94 2.598.006 1.686c0 .36.296.65.662.65a.657.657 0 00.662-.65V8.07l1.945-2.583a.802.802 0 00.172-.521.61.61 0 00-.646-.572c-.275 0-.473.154-.637.391l-1.49 2.092-1.462-2.075c-.163-.238-.354-.398-.655-.398h-.004a.643.643 0 00-.658.626c.002.169.06.333.165.466zm-23.43-.603l1.59 3.43h-3.178l1.588-3.43zm-.295-.282l-2.574 5.481a.314.314 0 00-.033.136.2.2 0 00.206.186.227.227 0 00.215-.16l.706-1.533h3.555l.706 1.524c.035.094.122.16.223.169a.21.21 0 00.215-.203.285.285 0 00-.035-.13l-2.564-5.47a.315.315 0 00-.302-.211h-.017a.315.315 0 00-.301.21zm-7.729-.19a.222.222 0 00-.223.22v5.526c.002.121.1.218.223.22h3.59a.205.205 0 00.207-.203.205.205 0 00-.207-.203H20.07v-5.34c0-.121-.1-.22-.224-.22zm13.78 3.615l-2.35-3.256a.276.276 0 01-.044-.13.234.234 0 01.233-.22.24.24 0 01.207.13l2.186 3.09 2.195-3.09a.245.245 0 01.199-.13.231.231 0 01.223.212.324.324 0 01-.069.17l-2.332 3.215v2.167c0 .121-.1.22-.224.22a.222.222 0 01-.224-.22V8.036zm8.264.559c0 .44-.353.643-.938.643l-1.578-.001V7.934h1.534c.68 0 .981.246.981.644v.017zm-.336-2.37c0 .44-.37.626-.955.626h-1.223V5.598h1.309c.56 0 .87.219.87.61v.016zm-2.81-1.77a.657.657 0 00-.661.652l.001 4.62c0 .36.296.652.662.652h2.205c1.355 0 2.25-.542 2.25-1.626v-.016c0-.796-.43-1.196-1.127-1.457.432-.237.794-.61.794-1.278v-.017a1.348 1.348 0 00-.413-1.008c-.344-.335-.887-.521-1.576-.521h-2.134zm5.889 3.385V5.056c0-.36.296-.651.662-.651.365 0 .662.291.662.651v2.752c0 .965.491 1.465 1.3 1.465.81 0 1.3-.483 1.3-1.422V5.056c0-.36.297-.651.662-.651.366 0 .662.291.662.651v2.743c0 1.794-1.024 2.675-2.648 2.675-1.623 0-2.6-.89-2.6-2.634z" fill="#000"/><path d="M9.703 1.2L8.311 2.567c-.096.095-.235 0-.235 0L6.296.784a1.494 1.494 0 00-2.081 0 1.434 1.434 0 000 2.047l2.95 2.91a1.492 1.492 0 002.08 0l2.475-2.434.434-.438a.768.768 0 011.074 0 .712.712 0 01-.005 1.034l-.447.442-4.492 4.423a.187.187 0 01-.262.008l-.008-.008-4.888-4.809a1.495 1.495 0 00-2.083 0 1.436 1.436 0 000 2.048l6.095 5.995-.032-.028a1.495 1.495 0 002.082 0l5.675-5.581.06-.059a3.589 3.589 0 00.084-5.134 3.735 3.735 0 00-5.304 0z" fill="#747782"/></svg>