<svg fill="none" xmlns="http://www.w3.org/2000/svg" viewBox="0 0 200 200" class="icon icon-vegan icon-vegan"><path d="M14.4 44.5c14.8 8.9 35.7 28.4 47.2 44 15.6 21.2 27.6 48.1 33.2 74.5l1 4.5.1-5c.1-2.8-.6-10.7-1.4-17.7C87.1 81.4 59.9 46.1 15 41.6L8.6 41l5.8 3.5zm166.5-2.4c-11.2 1.2-19.3 3.5-29.4 8.4-16.8 8.1-27.6 19.3-37 38-6 11.9-10.8 28.4-12 41-.3 3.8-.8 8.3-1.1 10-.2 2 .2 1.3 1.5-2 7.4-19.8 18.7-37.5 33.7-53.1C143.9 77 156.8 66 158.3 66c.5 0-2.3 3.4-6.2 7.6-15.4 16.4-28.4 36.2-37.5 56.8l-2.4 5.5 5.1-3.7c12.3-8.8 33.8-31.7 50.3-53.7 4.9-6.5 21.7-31.1 24.8-36.3.8-1.4.2-1.4-11.5-.1z" fill="#6B7C64"/></svg>