<svg fill="none" xmlns="http://www.w3.org/2000/svg" viewBox="0 0 26 15" class="icon icon-shipping icon-shipping"><path fill-rule="evenodd" clip-rule="evenodd" d="M16.5 1h-11v2H11a.5.5 0 010 1H3a.5.5 0 010-1h1.5V1a1 1 0 011-1h11a1 1 0 011 1v2h3.868a2 2 0 011.715.971l2.132 3.554a2 2 0 01.285 1.029V12a1 1 0 01-1 1h-2.05a2.5 2.5 0 01-4.9 0h-6.1a2.5 2.5 0 01-4.9 0H5.5a1 1 0 01-1-1V8H1a.5.5 0 010-1h6a.5.5 0 010 1H5.5v4h1.05a2.5 2.5 0 014.9 0h5.05V1zm1.05 11h-.05V4h2v4.5a.5.5 0 00.5.5h4.5v3h-2.05a2.5 2.5 0 00-4.9 0zm6.784-4l-2.109-3.514A1 1 0 0021.368 4H20.5v4h3.834zM10.5 12.5A1.497 1.497 0 019 14a1.5 1.5 0 111.5-1.5zm10.921.481a1.498 1.498 0 00-.006-.981 1.5 1.5 0 00-2.83 0l-.006.019a1.498 1.498 0 00.006.981 1.5 1.5 0 002.83 0l.006-.019z" fill="#000"/><path d="M1.5 5.5A.5.5 0 012 5h7a.5.5 0 010 1H2a.5.5 0 01-.5-.5z" fill="#000"/></svg>